<mxfile host="app.diagrams.net" modified="2023-11-09T15:51:07.629Z" agent="Mozilla/5.0 (Windows NT 10.0; Win64; x64) AppleWebKit/537.36 (KHTML, like Gecko) Chrome/119.0.0.0 Safari/537.36" etag="ot3gJFoEj4l3Ta8C_6Rs" version="22.1.0" type="github">
  <diagram name="Page-1" id="cZp9jSOshoaABNh8flWf">
    <mxGraphModel dx="1779" dy="1174" grid="1" gridSize="10" guides="1" tooltips="1" connect="1" arrows="1" fold="1" page="1" pageScale="1" pageWidth="850" pageHeight="1100" math="0" shadow="0">
      <root>
        <mxCell id="0" />
        <mxCell id="1" parent="0" />
        <mxCell id="4BFQ7S2cintoldXeGL2Z-1" value="" style="fillColor=#dae8fc;strokeColor=#6c8ebf;opacity=30;" vertex="1" parent="1">
          <mxGeometry x="152.5" y="881" width="920" height="274" as="geometry" />
        </mxCell>
        <mxCell id="4BFQ7S2cintoldXeGL2Z-2" value="" style="fillColor=#dae8fc;strokeColor=#6c8ebf;opacity=30;" vertex="1" parent="1">
          <mxGeometry x="152.5" y="746" width="920" height="119" as="geometry" />
        </mxCell>
        <mxCell id="4BFQ7S2cintoldXeGL2Z-3" value="" style="fillColor=#dae8fc;strokeColor=#6c8ebf;opacity=30;" vertex="1" parent="1">
          <mxGeometry x="260" y="586.5" width="812.5" height="124" as="geometry" />
        </mxCell>
        <mxCell id="4BFQ7S2cintoldXeGL2Z-4" value="" style="fillColor=#AE4132;strokeColor=none;opacity=30;" vertex="1" parent="1">
          <mxGeometry x="747" y="175.50000000000003" width="210" height="99.99999999999994" as="geometry" />
        </mxCell>
        <mxCell id="4BFQ7S2cintoldXeGL2Z-5" value="" style="fillColor=#12AAB5;strokeColor=none;opacity=30;" vertex="1" parent="1">
          <mxGeometry x="710" y="456" width="870" height="94" as="geometry" />
        </mxCell>
        <mxCell id="4BFQ7S2cintoldXeGL2Z-6" value="" style="fillColor=#12AAB5;strokeColor=none;opacity=30;" vertex="1" parent="1">
          <mxGeometry x="150" y="456" width="520" height="85" as="geometry" />
        </mxCell>
        <mxCell id="4BFQ7S2cintoldXeGL2Z-7" value="Monorepo" style="rounded=1;fillColor=#23445D;gradientColor=none;strokeColor=none;fontColor=#FFFFFF;fontStyle=1;fontFamily=Tahoma;fontSize=14" vertex="1" parent="1">
          <mxGeometry x="757" y="185.5" width="190" height="80" as="geometry" />
        </mxCell>
        <mxCell id="4BFQ7S2cintoldXeGL2Z-8" style="edgeStyle=orthogonalEdgeStyle;rounded=0;orthogonalLoop=1;jettySize=auto;html=1;entryX=0.5;entryY=0;entryDx=0;entryDy=0;" edge="1" parent="1" source="4BFQ7S2cintoldXeGL2Z-9" target="4BFQ7S2cintoldXeGL2Z-45">
          <mxGeometry relative="1" as="geometry">
            <Array as="points">
              <mxPoint x="1215" y="440" />
              <mxPoint x="1395" y="440" />
            </Array>
          </mxGeometry>
        </mxCell>
        <mxCell id="4BFQ7S2cintoldXeGL2Z-9" value="Libs" style="rounded=1;fillColor=#23445D;gradientColor=none;strokeColor=none;fontColor=#FFFFFF;fontStyle=1;fontFamily=Tahoma;fontSize=14" vertex="1" parent="1">
          <mxGeometry x="1120" y="345.5" width="190" height="80" as="geometry" />
        </mxCell>
        <mxCell id="4BFQ7S2cintoldXeGL2Z-10" style="edgeStyle=orthogonalEdgeStyle;rounded=0;orthogonalLoop=1;jettySize=auto;html=1;entryX=0.5;entryY=0;entryDx=0;entryDy=0;" edge="1" parent="1" source="4BFQ7S2cintoldXeGL2Z-12" target="4BFQ7S2cintoldXeGL2Z-32">
          <mxGeometry relative="1" as="geometry" />
        </mxCell>
        <mxCell id="4BFQ7S2cintoldXeGL2Z-11" style="edgeStyle=orthogonalEdgeStyle;rounded=0;orthogonalLoop=1;jettySize=auto;html=1;entryX=0.553;entryY=-0.017;entryDx=0;entryDy=0;entryPerimeter=0;" edge="1" parent="1" source="4BFQ7S2cintoldXeGL2Z-12" target="4BFQ7S2cintoldXeGL2Z-31">
          <mxGeometry relative="1" as="geometry">
            <Array as="points">
              <mxPoint x="305" y="440" />
              <mxPoint x="583" y="440" />
            </Array>
          </mxGeometry>
        </mxCell>
        <mxCell id="4BFQ7S2cintoldXeGL2Z-12" value="Apps" style="rounded=1;fillColor=#23445D;gradientColor=none;strokeColor=none;fontColor=#FFFFFF;fontStyle=1;fontFamily=Tahoma;fontSize=14" vertex="1" parent="1">
          <mxGeometry x="210" y="345.5" width="190" height="80" as="geometry" />
        </mxCell>
        <mxCell id="4BFQ7S2cintoldXeGL2Z-13" value="todo-app" style="rounded=1;fillColor=#dae8fc;strokeColor=#6c8ebf;fontStyle=1;fontFamily=Tahoma;fontSize=14" vertex="1" parent="1">
          <mxGeometry x="160" y="465.5" width="130" height="60" as="geometry" />
        </mxCell>
        <mxCell id="4BFQ7S2cintoldXeGL2Z-14" style="edgeStyle=orthogonalEdgeStyle;rounded=0;orthogonalLoop=1;jettySize=auto;html=1;entryX=0.5;entryY=0;entryDx=0;entryDy=0;exitX=0.5;exitY=1;exitDx=0;exitDy=0;strokeColor=#000000;jumpStyle=arc;dashed=1;" edge="1" parent="1" source="4BFQ7S2cintoldXeGL2Z-17" target="4BFQ7S2cintoldXeGL2Z-41">
          <mxGeometry relative="1" as="geometry">
            <Array as="points">
              <mxPoint x="801" y="580" />
              <mxPoint x="885" y="580" />
              <mxPoint x="885" y="620" />
              <mxPoint x="950" y="620" />
            </Array>
          </mxGeometry>
        </mxCell>
        <mxCell id="4BFQ7S2cintoldXeGL2Z-15" value="lazy loading" style="text;html=1;resizable=0;points=[];align=center;verticalAlign=middle;labelBackgroundColor=#ffffff;" vertex="1" connectable="0" parent="4BFQ7S2cintoldXeGL2Z-14">
          <mxGeometry x="0.027" relative="1" as="geometry">
            <mxPoint x="85" y="20" as="offset" />
          </mxGeometry>
        </mxCell>
        <mxCell id="4BFQ7S2cintoldXeGL2Z-16" style="edgeStyle=orthogonalEdgeStyle;rounded=0;orthogonalLoop=1;jettySize=auto;html=1;exitX=0.5;exitY=1;exitDx=0;exitDy=0;entryX=0;entryY=0.5;entryDx=0;entryDy=0;" edge="1" parent="1" source="4BFQ7S2cintoldXeGL2Z-17" target="4BFQ7S2cintoldXeGL2Z-45">
          <mxGeometry relative="1" as="geometry">
            <Array as="points">
              <mxPoint x="801" y="549" />
              <mxPoint x="1150" y="549" />
              <mxPoint x="1150" y="499" />
            </Array>
          </mxGeometry>
        </mxCell>
        <mxCell id="4BFQ7S2cintoldXeGL2Z-17" value="todo-app" style="rounded=1;strokeColor=#d79b00;fontStyle=1;fontFamily=Tahoma;fontSize=14;fillColor=#23445D;fontColor=#FFFFFF;" vertex="1" parent="1">
          <mxGeometry x="735.5" y="468.5" width="130" height="60" as="geometry" />
        </mxCell>
        <mxCell id="4BFQ7S2cintoldXeGL2Z-18" style="edgeStyle=orthogonalEdgeStyle;rounded=0;orthogonalLoop=1;jettySize=auto;html=1;exitX=0.5;exitY=1;exitDx=0;exitDy=0;entryX=0.5;entryY=0;entryDx=0;entryDy=0;" edge="1" parent="1" source="4BFQ7S2cintoldXeGL2Z-19" target="4BFQ7S2cintoldXeGL2Z-59">
          <mxGeometry relative="1" as="geometry">
            <Array as="points">
              <mxPoint x="262.5" y="856" />
              <mxPoint x="316.5" y="856" />
            </Array>
          </mxGeometry>
        </mxCell>
        <mxCell id="4BFQ7S2cintoldXeGL2Z-19" value="domain-todo-list" style="rounded=1;fillColor=#ffe6cc;strokeColor=#d79b00;fontStyle=1;fontFamily=Tahoma;fontSize=14" vertex="1" parent="1">
          <mxGeometry x="182.5" y="780" width="160" height="62" as="geometry" />
        </mxCell>
        <mxCell id="4BFQ7S2cintoldXeGL2Z-20" style="edgeStyle=orthogonalEdgeStyle;rounded=0;orthogonalLoop=1;jettySize=auto;html=1;" edge="1" parent="1" source="4BFQ7S2cintoldXeGL2Z-22">
          <mxGeometry relative="1" as="geometry">
            <mxPoint x="1760" y="800" as="targetPoint" />
          </mxGeometry>
        </mxCell>
        <mxCell id="4BFQ7S2cintoldXeGL2Z-21" style="edgeStyle=orthogonalEdgeStyle;rounded=0;orthogonalLoop=1;jettySize=auto;html=1;entryX=0.5;entryY=0;entryDx=0;entryDy=0;" edge="1" parent="1" source="4BFQ7S2cintoldXeGL2Z-22" target="4BFQ7S2cintoldXeGL2Z-79">
          <mxGeometry relative="1" as="geometry" />
        </mxCell>
        <mxCell id="4BFQ7S2cintoldXeGL2Z-22" value="util" style="rounded=1;fillColor=#ffe6cc;strokeColor=#d79b00;fontStyle=1;fontFamily=Tahoma;fontSize=14" vertex="1" parent="1">
          <mxGeometry x="1630" y="639.5" width="130" height="60" as="geometry" />
        </mxCell>
        <mxCell id="4BFQ7S2cintoldXeGL2Z-23" style="edgeStyle=orthogonalEdgeStyle;rounded=0;orthogonalLoop=1;jettySize=auto;html=1;exitX=1;exitY=0.5;exitDx=0;exitDy=0;entryX=0;entryY=0.5;entryDx=0;entryDy=0;" edge="1" parent="1" source="4BFQ7S2cintoldXeGL2Z-26" target="4BFQ7S2cintoldXeGL2Z-22">
          <mxGeometry relative="1" as="geometry">
            <Array as="points">
              <mxPoint x="1430" y="730" />
              <mxPoint x="1620" y="730" />
              <mxPoint x="1620" y="670" />
            </Array>
          </mxGeometry>
        </mxCell>
        <mxCell id="4BFQ7S2cintoldXeGL2Z-24" style="edgeStyle=orthogonalEdgeStyle;rounded=0;orthogonalLoop=1;jettySize=auto;html=1;exitX=0.5;exitY=1;exitDx=0;exitDy=0;entryX=0.5;entryY=0;entryDx=0;entryDy=0;" edge="1" parent="1" source="4BFQ7S2cintoldXeGL2Z-26" target="4BFQ7S2cintoldXeGL2Z-46">
          <mxGeometry relative="1" as="geometry" />
        </mxCell>
        <mxCell id="4BFQ7S2cintoldXeGL2Z-25" style="edgeStyle=orthogonalEdgeStyle;rounded=0;orthogonalLoop=1;jettySize=auto;html=1;entryX=0.5;entryY=0;entryDx=0;entryDy=0;" edge="1" parent="1" source="4BFQ7S2cintoldXeGL2Z-26" target="4BFQ7S2cintoldXeGL2Z-47">
          <mxGeometry relative="1" as="geometry">
            <Array as="points">
              <mxPoint x="1365" y="740" />
              <mxPoint x="1435" y="740" />
            </Array>
          </mxGeometry>
        </mxCell>
        <mxCell id="4BFQ7S2cintoldXeGL2Z-26" value="ui" style="rounded=1;fillColor=#ffe6cc;strokeColor=#d79b00;fontStyle=1;fontFamily=Tahoma;fontSize=14" vertex="1" parent="1">
          <mxGeometry x="1300" y="639.5" width="130" height="60" as="geometry" />
        </mxCell>
        <mxCell id="4BFQ7S2cintoldXeGL2Z-27" value="" style="edgeStyle=elbowEdgeStyle;elbow=vertical;strokeWidth=2;rounded=0" edge="1" parent="1" source="4BFQ7S2cintoldXeGL2Z-7" target="4BFQ7S2cintoldXeGL2Z-9">
          <mxGeometry x="347" y="225.5" width="100" height="100" as="geometry">
            <mxPoint x="861.9999999999999" y="275.5" as="sourcePoint" />
            <mxPoint x="1466.9999999999998" y="345.5" as="targetPoint" />
          </mxGeometry>
        </mxCell>
        <mxCell id="4BFQ7S2cintoldXeGL2Z-28" value="" style="edgeStyle=elbowEdgeStyle;elbow=vertical;strokeWidth=2;rounded=0" edge="1" parent="1" source="4BFQ7S2cintoldXeGL2Z-7" target="4BFQ7S2cintoldXeGL2Z-12">
          <mxGeometry x="-23" y="135.5" width="100" height="100" as="geometry">
            <mxPoint x="-23" y="235.5" as="sourcePoint" />
            <mxPoint x="77" y="135.5" as="targetPoint" />
          </mxGeometry>
        </mxCell>
        <mxCell id="4BFQ7S2cintoldXeGL2Z-29" value="" style="edgeStyle=elbowEdgeStyle;elbow=vertical;strokeWidth=2;rounded=0" edge="1" parent="1" source="4BFQ7S2cintoldXeGL2Z-12" target="4BFQ7S2cintoldXeGL2Z-13">
          <mxGeometry x="80" y="145.5" width="100" height="100" as="geometry">
            <mxPoint x="80" y="245.5" as="sourcePoint" />
            <mxPoint x="180" y="145.5" as="targetPoint" />
          </mxGeometry>
        </mxCell>
        <mxCell id="4BFQ7S2cintoldXeGL2Z-30" value="" style="edgeStyle=elbowEdgeStyle;elbow=vertical;strokeWidth=1;rounded=0" edge="1" parent="1" source="4BFQ7S2cintoldXeGL2Z-9" target="4BFQ7S2cintoldXeGL2Z-17">
          <mxGeometry x="535" y="145.5" width="100" height="100" as="geometry">
            <mxPoint x="535" y="245.5" as="sourcePoint" />
            <mxPoint x="635" y="145.5" as="targetPoint" />
            <Array as="points">
              <mxPoint x="1010" y="440" />
            </Array>
          </mxGeometry>
        </mxCell>
        <mxCell id="4BFQ7S2cintoldXeGL2Z-31" value="todo-service" style="rounded=1;fillColor=#dae8fc;strokeColor=#6c8ebf;fontStyle=1;fontFamily=Tahoma;fontSize=14" vertex="1" parent="1">
          <mxGeometry x="500" y="469" width="150" height="60" as="geometry" />
        </mxCell>
        <mxCell id="4BFQ7S2cintoldXeGL2Z-32" value="todo-admin" style="rounded=1;fillColor=#dae8fc;strokeColor=#6c8ebf;fontStyle=1;fontFamily=Tahoma;fontSize=14" vertex="1" parent="1">
          <mxGeometry x="320" y="465.5" width="155" height="60" as="geometry" />
        </mxCell>
        <mxCell id="4BFQ7S2cintoldXeGL2Z-33" style="edgeStyle=orthogonalEdgeStyle;rounded=0;orthogonalLoop=1;jettySize=auto;html=1;exitX=1;exitY=0.5;exitDx=0;exitDy=0;entryX=0;entryY=0.5;entryDx=0;entryDy=0;" edge="1" parent="1" source="4BFQ7S2cintoldXeGL2Z-34" target="4BFQ7S2cintoldXeGL2Z-45">
          <mxGeometry relative="1" as="geometry">
            <Array as="points">
              <mxPoint x="1096" y="529" />
              <mxPoint x="1026" y="529" />
              <mxPoint x="1026" y="499" />
            </Array>
          </mxGeometry>
        </mxCell>
        <mxCell id="4BFQ7S2cintoldXeGL2Z-34" value="todo-admin" style="rounded=1;strokeColor=#d79b00;fontStyle=1;fontFamily=Tahoma;fontSize=14;fontColor=#FFFFFF;fillColor=#23445D;" vertex="1" parent="1">
          <mxGeometry x="947" y="469" width="149" height="60" as="geometry" />
        </mxCell>
        <mxCell id="4BFQ7S2cintoldXeGL2Z-35" style="edgeStyle=orthogonalEdgeStyle;rounded=0;orthogonalLoop=1;jettySize=auto;html=1;entryX=0;entryY=0.5;entryDx=0;entryDy=0;" edge="1" parent="1" source="4BFQ7S2cintoldXeGL2Z-38" target="4BFQ7S2cintoldXeGL2Z-22">
          <mxGeometry relative="1" as="geometry" />
        </mxCell>
        <mxCell id="4BFQ7S2cintoldXeGL2Z-36" style="edgeStyle=orthogonalEdgeStyle;rounded=0;orthogonalLoop=1;jettySize=auto;html=1;entryX=0.5;entryY=0;entryDx=0;entryDy=0;" edge="1" parent="1" source="4BFQ7S2cintoldXeGL2Z-38" target="4BFQ7S2cintoldXeGL2Z-54">
          <mxGeometry relative="1" as="geometry" />
        </mxCell>
        <mxCell id="4BFQ7S2cintoldXeGL2Z-37" style="edgeStyle=orthogonalEdgeStyle;rounded=0;orthogonalLoop=1;jettySize=auto;html=1;entryX=0.5;entryY=0;entryDx=0;entryDy=0;" edge="1" parent="1" source="4BFQ7S2cintoldXeGL2Z-38" target="4BFQ7S2cintoldXeGL2Z-55">
          <mxGeometry relative="1" as="geometry">
            <Array as="points">
              <mxPoint x="1535" y="860" />
              <mxPoint x="1465" y="860" />
            </Array>
          </mxGeometry>
        </mxCell>
        <mxCell id="4BFQ7S2cintoldXeGL2Z-38" value="domain" style="rounded=1;fillColor=#ffe6cc;strokeColor=#d79b00;fontStyle=1;fontFamily=Tahoma;fontSize=14" vertex="1" parent="1">
          <mxGeometry x="1470" y="638.5" width="130" height="60" as="geometry" />
        </mxCell>
        <mxCell id="4BFQ7S2cintoldXeGL2Z-39" style="edgeStyle=orthogonalEdgeStyle;rounded=0;orthogonalLoop=1;jettySize=auto;html=1;exitX=0.5;exitY=1;exitDx=0;exitDy=0;entryX=0.5;entryY=0;entryDx=0;entryDy=0;" edge="1" parent="1" source="4BFQ7S2cintoldXeGL2Z-41" target="4BFQ7S2cintoldXeGL2Z-83">
          <mxGeometry relative="1" as="geometry">
            <Array as="points">
              <mxPoint x="885" y="760" />
              <mxPoint x="730" y="760" />
            </Array>
          </mxGeometry>
        </mxCell>
        <mxCell id="4BFQ7S2cintoldXeGL2Z-40" style="edgeStyle=orthogonalEdgeStyle;rounded=0;orthogonalLoop=1;jettySize=auto;html=1;exitX=0.25;exitY=0;exitDx=0;exitDy=0;entryX=0.5;entryY=0;entryDx=0;entryDy=0;" edge="1" parent="1" source="4BFQ7S2cintoldXeGL2Z-41" target="4BFQ7S2cintoldXeGL2Z-86">
          <mxGeometry relative="1" as="geometry" />
        </mxCell>
        <mxCell id="4BFQ7S2cintoldXeGL2Z-41" value="profile-feature" style="rounded=1;fillColor=#ffe6cc;strokeColor=#d79b00;fontStyle=1;fontFamily=Tahoma;fontSize=14" vertex="1" parent="1">
          <mxGeometry x="844.5" y="630" width="210" height="60" as="geometry" />
        </mxCell>
        <mxCell id="4BFQ7S2cintoldXeGL2Z-42" style="edgeStyle=orthogonalEdgeStyle;rounded=0;orthogonalLoop=1;jettySize=auto;html=1;" edge="1" parent="1" source="4BFQ7S2cintoldXeGL2Z-45" target="4BFQ7S2cintoldXeGL2Z-26">
          <mxGeometry relative="1" as="geometry" />
        </mxCell>
        <mxCell id="4BFQ7S2cintoldXeGL2Z-43" style="edgeStyle=orthogonalEdgeStyle;rounded=0;orthogonalLoop=1;jettySize=auto;html=1;entryX=0.5;entryY=0;entryDx=0;entryDy=0;" edge="1" parent="1" source="4BFQ7S2cintoldXeGL2Z-45" target="4BFQ7S2cintoldXeGL2Z-38">
          <mxGeometry relative="1" as="geometry" />
        </mxCell>
        <mxCell id="4BFQ7S2cintoldXeGL2Z-44" style="edgeStyle=orthogonalEdgeStyle;rounded=0;orthogonalLoop=1;jettySize=auto;html=1;entryX=0.5;entryY=0;entryDx=0;entryDy=0;" edge="1" parent="1" source="4BFQ7S2cintoldXeGL2Z-45" target="4BFQ7S2cintoldXeGL2Z-22">
          <mxGeometry relative="1" as="geometry" />
        </mxCell>
        <mxCell id="4BFQ7S2cintoldXeGL2Z-45" value="Shared" style="rounded=1;fillColor=#23445D;gradientColor=none;strokeColor=none;fontColor=#FFFFFF;fontStyle=1;fontFamily=Tahoma;fontSize=14" vertex="1" parent="1">
          <mxGeometry x="1330" y="469" width="130" height="60" as="geometry" />
        </mxCell>
        <mxCell id="4BFQ7S2cintoldXeGL2Z-46" value="Buttons" style="rounded=1;fillColor=#23445D;gradientColor=none;strokeColor=none;fontColor=#FFFFFF;fontStyle=1;fontFamily=Tahoma;fontSize=14" vertex="1" parent="1">
          <mxGeometry x="1215" y="780" width="130" height="60" as="geometry" />
        </mxCell>
        <mxCell id="4BFQ7S2cintoldXeGL2Z-47" value="Modal" style="rounded=1;fillColor=#23445D;gradientColor=none;strokeColor=none;fontColor=#FFFFFF;fontStyle=1;fontFamily=Tahoma;fontSize=14" vertex="1" parent="1">
          <mxGeometry x="1370" y="780" width="130" height="60" as="geometry" />
        </mxCell>
        <mxCell id="4BFQ7S2cintoldXeGL2Z-48" style="edgeStyle=orthogonalEdgeStyle;rounded=0;orthogonalLoop=1;jettySize=auto;html=1;entryX=0;entryY=0.5;entryDx=0;entryDy=0;" edge="1" parent="1" source="4BFQ7S2cintoldXeGL2Z-52" target="4BFQ7S2cintoldXeGL2Z-26">
          <mxGeometry relative="1" as="geometry" />
        </mxCell>
        <mxCell id="4BFQ7S2cintoldXeGL2Z-49" style="edgeStyle=orthogonalEdgeStyle;rounded=0;orthogonalLoop=1;jettySize=auto;html=1;entryX=0.5;entryY=0;entryDx=0;entryDy=0;" edge="1" parent="1" source="4BFQ7S2cintoldXeGL2Z-52" target="4BFQ7S2cintoldXeGL2Z-38">
          <mxGeometry relative="1" as="geometry">
            <Array as="points">
              <mxPoint x="1195" y="620" />
              <mxPoint x="1535" y="620" />
            </Array>
          </mxGeometry>
        </mxCell>
        <mxCell id="4BFQ7S2cintoldXeGL2Z-50" style="edgeStyle=orthogonalEdgeStyle;rounded=0;orthogonalLoop=1;jettySize=auto;html=1;entryX=0.5;entryY=0;entryDx=0;entryDy=0;" edge="1" parent="1" source="4BFQ7S2cintoldXeGL2Z-88" target="4BFQ7S2cintoldXeGL2Z-22">
          <mxGeometry relative="1" as="geometry">
            <Array as="points">
              <mxPoint x="1195" y="610" />
              <mxPoint x="1695" y="610" />
            </Array>
          </mxGeometry>
        </mxCell>
        <mxCell id="4BFQ7S2cintoldXeGL2Z-51" style="edgeStyle=orthogonalEdgeStyle;rounded=0;orthogonalLoop=1;jettySize=auto;html=1;exitX=0.5;exitY=1;exitDx=0;exitDy=0;entryX=0.5;entryY=0;entryDx=0;entryDy=0;fontColor=#FFFFFF;" edge="1" parent="1" source="4BFQ7S2cintoldXeGL2Z-52" target="4BFQ7S2cintoldXeGL2Z-85">
          <mxGeometry relative="1" as="geometry" />
        </mxCell>
        <mxCell id="4BFQ7S2cintoldXeGL2Z-52" value="feature" style="rounded=1;fillColor=#ffe6cc;strokeColor=#d79b00;fontStyle=1;fontFamily=Tahoma;fontSize=14" vertex="1" parent="1">
          <mxGeometry x="1130" y="644.5" width="130" height="51" as="geometry" />
        </mxCell>
        <mxCell id="4BFQ7S2cintoldXeGL2Z-53" style="edgeStyle=orthogonalEdgeStyle;rounded=0;orthogonalLoop=1;jettySize=auto;html=1;fontSize=17;" edge="1" parent="1" source="4BFQ7S2cintoldXeGL2Z-54">
          <mxGeometry relative="1" as="geometry">
            <mxPoint x="1635" y="970" as="targetPoint" />
          </mxGeometry>
        </mxCell>
        <mxCell id="4BFQ7S2cintoldXeGL2Z-54" value="Http Services" style="rounded=1;fillColor=#23445D;gradientColor=none;strokeColor=none;fontColor=#FFFFFF;fontStyle=1;fontFamily=Tahoma;fontSize=14" vertex="1" parent="1">
          <mxGeometry x="1570" y="875.5" width="130" height="60" as="geometry" />
        </mxCell>
        <mxCell id="4BFQ7S2cintoldXeGL2Z-55" value="Store" style="rounded=1;fillColor=#23445D;gradientColor=none;strokeColor=none;fontColor=#FFFFFF;fontStyle=1;fontFamily=Tahoma;fontSize=14" vertex="1" parent="1">
          <mxGeometry x="1400" y="875.5" width="130" height="60" as="geometry" />
        </mxCell>
        <mxCell id="4BFQ7S2cintoldXeGL2Z-56" value="Date Utils" style="rounded=1;fillColor=#23445D;gradientColor=none;strokeColor=none;fontColor=#FFFFFF;fontStyle=1;fontFamily=Tahoma;fontSize=14" vertex="1" parent="1">
          <mxGeometry x="1700" y="795.5" width="130" height="60" as="geometry" />
        </mxCell>
        <mxCell id="4BFQ7S2cintoldXeGL2Z-57" style="edgeStyle=orthogonalEdgeStyle;rounded=0;orthogonalLoop=1;jettySize=auto;html=1;exitX=0.5;exitY=1;exitDx=0;exitDy=0;fontSize=13;entryX=0.5;entryY=0;entryDx=0;entryDy=0;" edge="1" parent="1" source="4BFQ7S2cintoldXeGL2Z-59" target="4BFQ7S2cintoldXeGL2Z-70">
          <mxGeometry relative="1" as="geometry">
            <mxPoint x="511.5" y="983" as="targetPoint" />
            <Array as="points">
              <mxPoint x="317.5" y="963" />
              <mxPoint x="505.5" y="963" />
            </Array>
          </mxGeometry>
        </mxCell>
        <mxCell id="4BFQ7S2cintoldXeGL2Z-58" style="edgeStyle=orthogonalEdgeStyle;rounded=0;orthogonalLoop=1;jettySize=auto;html=1;entryX=0.5;entryY=0;entryDx=0;entryDy=0;fontSize=13;" edge="1" parent="1" source="4BFQ7S2cintoldXeGL2Z-59" target="4BFQ7S2cintoldXeGL2Z-72">
          <mxGeometry relative="1" as="geometry" />
        </mxCell>
        <mxCell id="4BFQ7S2cintoldXeGL2Z-59" value="TodoListFacade" style="rounded=1;fillColor=#d5e8d4;strokeColor=#82b366;fontStyle=1;fontFamily=Tahoma;fontSize=14" vertex="1" parent="1">
          <mxGeometry x="213.5" y="892.5" width="205" height="60" as="geometry" />
        </mxCell>
        <mxCell id="4BFQ7S2cintoldXeGL2Z-60" value="todolist reducer" style="rounded=1;fillColor=#d5e8d4;strokeColor=#82b366;fontStyle=1;fontFamily=Tahoma;fontSize=13;" vertex="1" parent="1">
          <mxGeometry x="206.5" y="1078" width="171" height="50" as="geometry" />
        </mxCell>
        <mxCell id="4BFQ7S2cintoldXeGL2Z-61" value="TodolistActions" style="rounded=1;fillColor=#d5e8d4;strokeColor=#82b366;fontStyle=1;fontFamily=Tahoma;fontSize=13;" vertex="1" parent="1">
          <mxGeometry x="416.5" y="1079" width="175" height="50" as="geometry" />
        </mxCell>
        <mxCell id="4BFQ7S2cintoldXeGL2Z-62" value="TodolistSelectors" style="rounded=1;fillColor=#d5e8d4;strokeColor=#82b366;fontStyle=1;fontFamily=Tahoma;fontSize=13;" vertex="1" parent="1">
          <mxGeometry x="645.5" y="1078" width="167" height="50" as="geometry" />
        </mxCell>
        <mxCell id="4BFQ7S2cintoldXeGL2Z-63" value="TodolistHttpService" style="rounded=1;fillColor=#d5e8d4;strokeColor=#82b366;fontStyle=1;fontFamily=Tahoma;fontSize=13;" vertex="1" parent="1">
          <mxGeometry x="874" y="1078" width="182" height="55" as="geometry" />
        </mxCell>
        <mxCell id="4BFQ7S2cintoldXeGL2Z-64" value="&lt;font style=&quot;font-size: 18px&quot;&gt;Redux&lt;/font&gt;" style="text;strokeColor=none;fillColor=none;html=1;fontSize=24;fontStyle=1;verticalAlign=middle;align=center;" vertex="1" parent="1">
          <mxGeometry x="206.5" y="967" width="100" height="40" as="geometry" />
        </mxCell>
        <mxCell id="4BFQ7S2cintoldXeGL2Z-65" value="Represents a file&#xa;" style="rounded=1;fillColor=#d5e8d4;strokeColor=#82b366;fontStyle=1;fontFamily=Tahoma;fontSize=14" vertex="1" parent="1">
          <mxGeometry x="1215" y="143" width="208" height="60" as="geometry" />
        </mxCell>
        <mxCell id="4BFQ7S2cintoldXeGL2Z-66" value="Represents a folder" style="rounded=1;fillColor=#23445D;gradientColor=none;strokeColor=none;fontColor=#FFFFFF;fontStyle=1;fontFamily=Tahoma;fontSize=14" vertex="1" parent="1">
          <mxGeometry x="1215" y="55" width="210" height="65" as="geometry" />
        </mxCell>
        <mxCell id="4BFQ7S2cintoldXeGL2Z-67" style="edgeStyle=orthogonalEdgeStyle;rounded=0;orthogonalLoop=1;jettySize=auto;html=1;entryX=0.5;entryY=0;entryDx=0;entryDy=0;fontSize=13;" edge="1" parent="1" target="4BFQ7S2cintoldXeGL2Z-60">
          <mxGeometry relative="1" as="geometry">
            <mxPoint x="440.5" y="1014" as="sourcePoint" />
          </mxGeometry>
        </mxCell>
        <mxCell id="4BFQ7S2cintoldXeGL2Z-68" style="edgeStyle=orthogonalEdgeStyle;rounded=0;orthogonalLoop=1;jettySize=auto;html=1;entryX=0.5;entryY=0;entryDx=0;entryDy=0;fontSize=13;" edge="1" parent="1" source="4BFQ7S2cintoldXeGL2Z-70" target="4BFQ7S2cintoldXeGL2Z-61">
          <mxGeometry relative="1" as="geometry" />
        </mxCell>
        <mxCell id="4BFQ7S2cintoldXeGL2Z-69" style="edgeStyle=orthogonalEdgeStyle;rounded=0;orthogonalLoop=1;jettySize=auto;html=1;entryX=0.5;entryY=0;entryDx=0;entryDy=0;fontSize=13;" edge="1" parent="1" source="4BFQ7S2cintoldXeGL2Z-70" target="4BFQ7S2cintoldXeGL2Z-62">
          <mxGeometry relative="1" as="geometry">
            <Array as="points">
              <mxPoint x="730.5" y="1014" />
            </Array>
          </mxGeometry>
        </mxCell>
        <mxCell id="4BFQ7S2cintoldXeGL2Z-70" value="State" style="rounded=1;fillColor=#23445D;gradientColor=none;strokeColor=none;fontColor=#FFFFFF;fontStyle=1;fontFamily=Tahoma;fontSize=14" vertex="1" parent="1">
          <mxGeometry x="440.5" y="983.5" width="127" height="60" as="geometry" />
        </mxCell>
        <mxCell id="4BFQ7S2cintoldXeGL2Z-71" style="edgeStyle=orthogonalEdgeStyle;rounded=0;orthogonalLoop=1;jettySize=auto;html=1;entryX=0.5;entryY=0;entryDx=0;entryDy=0;fontSize=13;" edge="1" parent="1" source="4BFQ7S2cintoldXeGL2Z-72">
          <mxGeometry relative="1" as="geometry">
            <mxPoint x="968.5" y="1076" as="targetPoint" />
          </mxGeometry>
        </mxCell>
        <mxCell id="4BFQ7S2cintoldXeGL2Z-72" value="Resources" style="rounded=1;fillColor=#23445D;gradientColor=none;strokeColor=none;fontColor=#FFFFFF;fontStyle=1;fontFamily=Tahoma;fontSize=14" vertex="1" parent="1">
          <mxGeometry x="760.5" y="977" width="127" height="60" as="geometry" />
        </mxCell>
        <mxCell id="4BFQ7S2cintoldXeGL2Z-73" style="edgeStyle=orthogonalEdgeStyle;rounded=0;orthogonalLoop=1;jettySize=auto;html=1;exitX=0.5;exitY=1;exitDx=0;exitDy=0;entryX=0.5;entryY=0;entryDx=0;entryDy=0;" edge="1" parent="1" source="4BFQ7S2cintoldXeGL2Z-75" target="4BFQ7S2cintoldXeGL2Z-19">
          <mxGeometry relative="1" as="geometry" />
        </mxCell>
        <mxCell id="4BFQ7S2cintoldXeGL2Z-74" style="edgeStyle=orthogonalEdgeStyle;rounded=0;orthogonalLoop=1;jettySize=auto;html=1;exitX=0.5;exitY=0;exitDx=0;exitDy=0;entryX=0.5;entryY=0;entryDx=0;entryDy=0;" edge="1" parent="1" source="4BFQ7S2cintoldXeGL2Z-75" target="4BFQ7S2cintoldXeGL2Z-87">
          <mxGeometry relative="1" as="geometry" />
        </mxCell>
        <mxCell id="4BFQ7S2cintoldXeGL2Z-75" value="todo-list-feature" style="rounded=1;fillColor=#ffe6cc;strokeColor=#d79b00;fontStyle=1;fontFamily=Tahoma;fontSize=14" vertex="1" parent="1">
          <mxGeometry x="266.75" y="630" width="130" height="60" as="geometry" />
        </mxCell>
        <mxCell id="4BFQ7S2cintoldXeGL2Z-76" value="Lib" style="rounded=1;fillColor=#ffe6cc;strokeColor=#d79b00;fontStyle=1;fontFamily=Tahoma;fontSize=14" vertex="1" parent="1">
          <mxGeometry x="1460" y="140" width="200" height="63" as="geometry" />
        </mxCell>
        <mxCell id="4BFQ7S2cintoldXeGL2Z-77" value="App" style="rounded=1;fillColor=#dae8fc;strokeColor=#6c8ebf;fontStyle=1;fontFamily=Tahoma;fontSize=14" vertex="1" parent="1">
          <mxGeometry x="1455" y="55" width="210" height="65" as="geometry" />
        </mxCell>
        <mxCell id="4BFQ7S2cintoldXeGL2Z-78" value="HttpInterceptor" style="rounded=1;fillColor=#d5e8d4;strokeColor=#82b366;fontStyle=1;fontFamily=Tahoma;fontSize=13;" vertex="1" parent="1">
          <mxGeometry x="1542.5" y="973" width="185" height="55" as="geometry" />
        </mxCell>
        <mxCell id="4BFQ7S2cintoldXeGL2Z-79" value="Immutable Utils" style="rounded=1;fillColor=#23445D;gradientColor=none;strokeColor=none;fontColor=#FFFFFF;fontStyle=1;fontFamily=Tahoma;fontSize=14" vertex="1" parent="1">
          <mxGeometry x="1870" y="795.5" width="130" height="60" as="geometry" />
        </mxCell>
        <mxCell id="4BFQ7S2cintoldXeGL2Z-80" value="&lt;font style=&quot;font-size: 18px&quot;&gt;Domain libs&lt;/font&gt;" style="text;html=1;fontSize=24;fontStyle=1;verticalAlign=middle;align=center;" vertex="1" parent="1">
          <mxGeometry x="508.75" y="740" width="100" height="40" as="geometry" />
        </mxCell>
        <mxCell id="4BFQ7S2cintoldXeGL2Z-81" style="edgeStyle=orthogonalEdgeStyle;rounded=0;orthogonalLoop=1;jettySize=auto;html=1;exitX=0.5;exitY=1;exitDx=0;exitDy=0;entryX=0.5;entryY=0;entryDx=0;entryDy=0;jumpStyle=none;strokeColor=#000000;dashed=1;" edge="1" parent="1" source="4BFQ7S2cintoldXeGL2Z-17" target="4BFQ7S2cintoldXeGL2Z-75">
          <mxGeometry relative="1" as="geometry">
            <mxPoint x="801" y="529" as="sourcePoint" />
            <mxPoint x="670" y="669" as="targetPoint" />
            <Array as="points">
              <mxPoint x="801" y="579" />
              <mxPoint x="332" y="579" />
            </Array>
          </mxGeometry>
        </mxCell>
        <mxCell id="4BFQ7S2cintoldXeGL2Z-82" value="lazy loading" style="text;html=1;resizable=0;points=[];align=center;verticalAlign=middle;labelBackgroundColor=#ffffff;" vertex="1" connectable="0" parent="4BFQ7S2cintoldXeGL2Z-81">
          <mxGeometry x="-0.6316" y="-1" relative="1" as="geometry">
            <mxPoint x="-36" y="-8" as="offset" />
          </mxGeometry>
        </mxCell>
        <mxCell id="4BFQ7S2cintoldXeGL2Z-83" value="profile-domain" style="rounded=1;fillColor=#ffe6cc;strokeColor=#d79b00;fontStyle=1;fontFamily=Tahoma;fontSize=14" vertex="1" parent="1">
          <mxGeometry x="507.5" y="785" width="230" height="60" as="geometry" />
        </mxCell>
        <mxCell id="4BFQ7S2cintoldXeGL2Z-84" value="todo-app-shared-domain" style="rounded=1;fillColor=#ffe6cc;strokeColor=#d79b00;fontStyle=1;fontFamily=Tahoma;fontSize=14" vertex="1" parent="1">
          <mxGeometry x="849.5" y="785" width="200" height="60" as="geometry" />
        </mxCell>
        <mxCell id="4BFQ7S2cintoldXeGL2Z-85" value="domain" style="rounded=1;fillColor=#ffe6cc;strokeColor=#d79b00;fontStyle=1;fontFamily=Tahoma;fontSize=14" vertex="1" parent="1">
          <mxGeometry x="1130" y="720" width="130" height="51" as="geometry" />
        </mxCell>
        <mxCell id="4BFQ7S2cintoldXeGL2Z-86" value="todo-list-api" style="rounded=1;fillColor=#ffe6cc;strokeColor=#d79b00;fontStyle=1;fontFamily=Tahoma;fontSize=14" vertex="1" parent="1">
          <mxGeometry x="423.25" y="630" width="130" height="60" as="geometry" />
        </mxCell>
        <mxCell id="4BFQ7S2cintoldXeGL2Z-87" value="profile-api" style="rounded=1;fillColor=#ffe6cc;strokeColor=#d79b00;fontStyle=1;fontFamily=Tahoma;fontSize=14" vertex="1" parent="1">
          <mxGeometry x="617" y="630" width="210" height="60" as="geometry" />
        </mxCell>
        <mxCell id="4BFQ7S2cintoldXeGL2Z-88" value="auth" style="rounded=1;fillColor=#23445D;gradientColor=none;strokeColor=none;fontColor=#FFFFFF;fontStyle=1;fontFamily=Tahoma;fontSize=14" vertex="1" parent="1">
          <mxGeometry x="1130" y="570" width="130" height="60" as="geometry" />
        </mxCell>
        <mxCell id="4BFQ7S2cintoldXeGL2Z-89" value="todo-list" style="rounded=1;fillColor=#23445D;gradientColor=none;strokeColor=none;fontColor=#FFFFFF;fontStyle=1;fontFamily=Tahoma;fontSize=14" vertex="1" parent="1">
          <mxGeometry x="349" y="555" width="130" height="60" as="geometry" />
        </mxCell>
        <mxCell id="4BFQ7S2cintoldXeGL2Z-90" value="profile" style="rounded=1;fillColor=#23445D;gradientColor=none;strokeColor=none;fontColor=#FFFFFF;fontStyle=1;fontFamily=Tahoma;fontSize=14" vertex="1" parent="1">
          <mxGeometry x="770" y="560" width="130" height="60" as="geometry" />
        </mxCell>
      </root>
    </mxGraphModel>
  </diagram>
</mxfile>
